<svg xmlns="http://www.w3.org/2000/svg" width="227.678" height="19.36" viewBox="0 0 227.678 19.36"><path d="M-103.928-13.112v-1.672c-6.952,0-7.81-.176-10.406-1.738l-.858,1.43C-112.2-13.288-110.9-13.112-103.928-13.112ZM-110.836.022h7.172v-1.65h-7.172c-1.584,0-2.706-.33-3.278-.99-.594-.792-.77-1.936-.506-3.74h-1.694c-.22,1.562-.308,3.388.924,4.774C-114.466-.506-112.992.022-110.836.022Zm30.382.2V-1.32a15.214,15.214,0,0,1-2.574.352,3.6,3.6,0,0,1-1.518-.286c-.418-.176-.88-.594-.88-2.09V-5.39a2.648,2.648,0,0,0-2.948-2.948h-1.848l3.212-8.03-1.5-.594-6.886,16.9,1.5.616,3.058-7.436h2.464c.924,0,1.188.374,1.188,1.364v1.958c0,1.936.7,3.234,1.936,3.762a5.7,5.7,0,0,0,2.156.418A12.58,12.58,0,0,0-80.454.22Zm6.138-3.85,1.452.814A55.444,55.444,0,0,0-68.6-13.156h3.41V-14.7h-2.926c.308-1.122.55-2.068.682-2.508l-1.584-.374c-.176.594-.462,1.694-.792,2.882H-73.04v1.54h2.728A51.359,51.359,0,0,1-74.316-3.63Zm14.388-6.248h1.5v-1.276l-4.95-.088A6.586,6.586,0,0,0-67.3-10.076l.814,1.188c1.32-.836,1.826-1.056,4.136-1.056a4.059,4.059,0,0,0-1.012,3.08v2.31a6.492,6.492,0,0,0-2.486-.176c-1.54.176-2.574.836-2.926,1.8C-69.564-.66-67.034.748-64.988.748S-61.776-.22-61.8-2.42A29.957,29.957,0,0,1-58.432-.572l.792-1.342A25.9,25.9,0,0,0-61.8-4.048V-6.8C-61.842-8.91-61.05-9.878-59.928-9.878Zm-3.344,6.842v.418c0,1.188-.33,1.892-1.672,1.892-.418,0-2.376-.22-2.4-1.386a1.11,1.11,0,0,1,.858-.99,4.647,4.647,0,0,1,1.386-.22A6.748,6.748,0,0,1-63.272-3.036Zm25.344-10.076v-1.672c-6.952,0-7.81-.176-10.406-1.738l-.858,1.43C-46.2-13.288-44.9-13.112-37.928-13.112ZM-44.836.022h7.172v-1.65h-7.172c-1.584,0-2.706-.33-3.278-.99-.594-.792-.77-1.936-.506-3.74h-1.694c-.22,1.562-.308,3.388.924,4.774C-48.466-.506-46.992.022-44.836.022Zm28.82-.044v-1.54a37.382,37.382,0,0,1-5.742.352c-1.518-.044-4.026-.154-4.642-1.848-.792-2.046,1.562-3.674,5.632-6.094l4.092-2.4-.88-1.342c-2.156,1.276-3.432,2.046-4.862,3.014V-17.49H-24.09v8.624c-3.19,2.068-4.95,3.806-3.894,6.49C-26.84.418-23.034.33-21.34.352A32.826,32.826,0,0,0-16.016-.022ZM-.4-17.82l-.9,1.364a10.131,10.131,0,0,0,6.842,2v-1.562A8.446,8.446,0,0,1-.4-17.82ZM-3.08-12.21l-.308-5.17H-5.06l.33,5.39-3.036.352v1.474l3.124-.33L-3.982.462h1.738L-2.97-10.714c4.752-.484,5.06-.528,5.918-.528a4,4,0,0,1,2.794.792,2.3,2.3,0,0,1-.176,3.366,2.786,2.786,0,0,1-1.65.528A4.535,4.535,0,0,1,1.166-7.59L.286-6.248C2.244-5.06,2.97-4.95,4.18-4.994a4.237,4.237,0,0,0,2.4-.858,3.769,3.769,0,0,0,.308-5.7A5.251,5.251,0,0,0,3.08-12.782C1.892-12.782-1.32-12.386-3.08-12.21Zm25.872,1.166h-6.6v1.606h6.6c2.31,0,3.938.682,3.85,3.058-.11,2.75-3.476,4-5.874,4h-1.3V-.748h1.3c5.17,0,7.48-3.278,7.568-5.588C28.446-9.438,26.268-11.044,22.792-11.044Zm24.574-2.75H50.71v-1.518H36.5v1.518l8.976-.022C43.186-10.934,41.47-9,41.1-6.358c-.572,4.136,1.65,6.6,6.028,6.6q.528,0,1.716-.066V-1.342c-.77.066-1.43.088-1.672.088-3.08,0-4.84-1.672-4.378-4.84C43.252-9.218,46.266-12.122,47.366-13.794ZM71.9-.418l.968-1.254A19.785,19.785,0,0,0,67.43-4.686V-9h4.8v-1.5h-4.8v-3.322h5.126v-1.518H67.43v-2.618H65.824v2.618H60.1v1.518h5.72v3.322H60.39V-9h5.434v3.85a7.891,7.891,0,0,0-2.662-.088c-1.584.2-2.684.88-3.036,1.892-.814,2.42,1.54,3.85,3.938,3.85,2.332,0,3.3-1.166,3.366-3.586A19.283,19.283,0,0,1,71.9-.418ZM65.824-3.432c.022,1.584-.154,2.376-1.76,2.376-1.144,0-2.552-.55-2.332-1.474.132-.616.968-.946,1.65-1.034A7.391,7.391,0,0,1,65.824-3.432Zm30.162-9.7v-1.474h-5.1V-17.4h-1.65v2.794H79.794v1.474h9.438v2.662a1.981,1.981,0,0,0-1.364-.4A3.363,3.363,0,0,0,84.524-7.48C84.348-5.324,85.6-3.7,87.582-3.586a2.119,2.119,0,0,0,1.76-.55C89.144-2.552,88.726-2,86.306.352l1.21,1.056c3.344-3.366,3.454-3.938,3.366-7.9v-6.644ZM87.78-9.35c1.166,0,1.716,1.078,1.628,2.266-.066.99-.506,2.024-1.782,1.98-1.254-.044-1.606-1.3-1.518-2.244C86.174-8.294,86.658-9.35,87.78-9.35Zm21.362,5.126h1.716l.374-13.244h-2.464ZM108.768.33h2.464V-2.222h-2.464Z" transform="translate(116.446 17.952)"/></svg>