<svg xmlns="http://www.w3.org/2000/svg" xmlns:xlink="http://www.w3.org/1999/xlink" width="211" height="156" viewBox="0 0 211 156"><defs><clipPath id="a"><rect width="211" height="156" fill="none"/></clipPath></defs><g clip-path="url(#a)"><g transform="translate(-20 -468.249)"><rect width="155" height="30" transform="translate(20 594.249)"/><rect width="198" height="30" transform="translate(20 552.249)"/><rect width="165" height="30" transform="translate(20 510.249)"/><rect width="211" height="30" transform="translate(20 468.249)"/><path d="M1.207-7.582H1.19l.765.986a15.7,15.7,0,0,0,6.477-5.933A17.555,17.555,0,0,0,15.1-6.953l.765-1.105a14.382,14.382,0,0,1-6.749-5.593H7.7A14.206,14.206,0,0,1,1.207-7.582ZM9.231-4.675h4.4V-5.8h-4.4V-9.639H7.99V-.544H5.44V-6.817H4.216V-.544H1.632V.544h13.8V-.544h-6.2ZM18.377-12.9v1.088h6.511V-9.86H21.573v7.667h7.871V-9.86h-3.4v-1.955h6.562V-12.9ZM31.909-9.571H30.753V-.8H20.23V-9.571H19.091V1.19H20.23V.255H30.753V1.19h1.156ZM24.922-6.6H22.661V-8.857h2.261Zm3.417-2.261V-6.6H26.01V-8.857ZM24.922-3.179H22.661V-5.627h2.261Zm3.417-2.448v2.448H26.01V-5.627Zm13.073.306h2.176V-7.6H41.412Zm23.579-4.42V-10.8H53.431v1.173H63.6c.017,2.414-1.853,3.57-4.607,5.3L57.222-6.069l-.85-.731-.935.816A65.923,65.923,0,0,1,61.3.119L62.288-.7c-1.224-1.411-1.836-2.091-2.346-2.669C63.138-5.406,64.991-6.783,64.991-9.741ZM70.227-5.78H82.773V-7.072H70.227ZM96.271-9.044h3.774v-1.224H92.208a7.426,7.426,0,0,0,.578-3.145h-1.36c0,2.193-.221,3.23-4.012,6.834l.952.884a20.582,20.582,0,0,0,3.077-3.349h3.485c.017,4.539-.867,5.525-4.114,8.772l.969.918C95.3-2.924,96.271-4.148,96.271-9.044Zm18.275-2.142v-1.275h-8.262v1.275ZM111.5-7.395h4.879V-8.67H104.465v1.275h5.712c-.034,2.839-.2,4.1-3.009,7.174l.969.85C111.265-2.754,111.469-4.3,111.5-7.395Zm10.965,3.468.646,1.02c2.04-1.343,3.23-2.108,4.131-2.788V.7h1.275V-6.681c2.125-1.564,2.8-2.4,2.8-4.012H130.1c0,1.258-.629,1.887-2.771,3.451C126.208-6.409,124.933-5.525,122.468-3.927Zm17.085-7.48v1.292h4.726v-1.292Zm10.931,3.434-1.207-.663c-2.992,5.508-4,7.378-9.265,7.378V0C146.251,0,147.56-2.55,150.484-7.973Zm6.885,7.514.748,1.071c6.086-3.791,8.4-6.664,8.4-10.268v-1.156h-5.083a9.005,9.005,0,0,0,.255-2.567h-1.36c0,2.295-.051,3.825-4.131,6.7l.8,1.037c2.227-1.564,3.23-2.584,3.944-3.927h4.216C165.087-6.494,162.962-3.978,157.369-.459Zm8.364-13.923h-1v2.6h1Zm2.108.017h-1v2.6h1ZM178.262-1.309l.051,1.241a6.4,6.4,0,0,0,5.882-3.6,5.754,5.754,0,0,0-.289-5.712,5.834,5.834,0,0,0-4.981-2.567,6.789,6.789,0,0,0-6.783,6.562,5.063,5.063,0,0,0,1.19,3.808c1.037.969,2.737.918,3.859-.782a13.169,13.169,0,0,0,1.649-4.148,20.5,20.5,0,0,0,.6-4.267A4.58,4.58,0,0,1,182.8-8.721a4.428,4.428,0,0,1,.2,4.471C182.019-2.21,180.472-1.5,178.262-1.309Zm-.68-5.525A12.633,12.633,0,0,1,176.1-3.009c-.493.782-1.258,1.173-1.87.578a4.089,4.089,0,0,1-.8-2.89,5.656,5.656,0,0,1,4.675-5.423A22.407,22.407,0,0,1,177.582-6.834ZM3.094,41.065l.816,1.054a51.381,51.381,0,0,0,5.253-4.335,44.808,44.808,0,0,1,4.114,4.471l1.054-.816a46.111,46.111,0,0,0-4.216-4.59,7.579,7.579,0,0,0,2.295-5.423V30.134H4.3v1.224H11.05C11.05,34.2,9.979,35.914,3.094,41.065Zm20.774-8.126,7.378,7.31,1.02-1.071-8.534-8.092-4.794,6.46,1.1.8Zm6.9-1.581a1.828,1.828,0,1,0-3.655,0,1.828,1.828,0,0,0,3.655,0Zm-.748,0a1.074,1.074,0,0,1-1.071,1.054A1.048,1.048,0,0,1,27.9,31.358a1.063,1.063,0,0,1,1.054-1.071A1.113,1.113,0,0,1,30.022,31.358Zm8.041-1.275v1.326h4.369V30.083Zm10.574,3.468L47.43,32.99s-.357.833-.833,1.751c-1.734,3.468-2.924,6.069-6.9,6.069H38.454v1.241h1.241c4.862,0,6.358-3.128,8.143-6.749C48.025,34.911,48.637,33.551,48.637,33.551ZM42.432,34.6V33.33H38.063V34.6Zm21.777.765v-1H58.514l-.2-3.094H57.069l.17,3.094H54.4v1.139h2.941l.391,6.936H58.99l-.408-6.936h4.386c-.051.918-.425,1.445-2.856,2.363l.442,1.122C62.8,38.141,64.209,37.41,64.209,35.37Zm9.758-6.188V36.56H72.692V29.182Zm5.066,4.3v-4.3h1.343v4.3c0,5.406-.884,6.46-4.573,9.231L75,41.626C78.336,39.076,79.033,38.447,79.033,33.483Zm9.061,7.582.816,1.054a51.382,51.382,0,0,0,5.253-4.335,44.809,44.809,0,0,1,4.114,4.471l1.054-.816a46.111,46.111,0,0,0-4.216-4.59,7.579,7.579,0,0,0,2.3-5.423V30.134H89.3v1.224H96.05C96.05,34.2,94.979,35.914,88.094,41.065Zm20.961-7.446v-5h-1.309V42.527h1.309V34.911a48.9,48.9,0,0,1,5.61,3.451l.748-1.1A54.426,54.426,0,0,0,109.055,33.619Zm12.6,7.837,1.139.561c2.074-4.063,2.6-4.964,2.7-8.5h1.173c1.326,0,1.785.561,2.023,1.326a7.6,7.6,0,0,1,.238,2.482,7.375,7.375,0,0,1-.238,2.414c-.255.816-.527,1.292-2.635,1.292v1.207c1.785,0,3.264-.136,3.893-2.057a9.3,9.3,0,0,0,.289-2.856,9.145,9.145,0,0,0-.289-2.89,3.083,3.083,0,0,0-3.281-2.074h-1.156V28.587h-1.292v3.774H121.6v1.156h2.6C124.134,36.7,123.743,37.376,121.652,41.456Zm10.1-12.784h-.969v2.567h.969Zm2.057.017h-.969v2.567h.969Zm-.8,9.843h1.258c0-3.91-.221-5-2.21-6.477l-.9.816C132.685,34.18,133.008,34.6,133.008,38.532ZM7.582,73.188h.867v-1.02H5.712V69.89H4.556v2.278H1.615v1.02H2.686A21.888,21.888,0,0,1,3.3,75.551H1.275v1.054H4.59v1.513H1.615v1.02H4.3A12.53,12.53,0,0,1,1.156,83.1l.782,1A16.57,16.57,0,0,0,4.59,80.668V85.19H5.678V81.042A19.478,19.478,0,0,1,7.463,82.81l.646-1.054A18.515,18.515,0,0,0,5.661,79.9h.017v-.765h2.8v-1.02h-2.8V76.605H8.653V75.551H6.817C7.106,74.786,7.361,73.987,7.582,73.188Zm2.669,3.366h2.3V85.19H13.7V76.554H15.81V75.449H10.251V72.593h-.017a32.918,32.918,0,0,0,4.828-1.02l-.935-1.037A19.777,19.777,0,0,1,9.1,71.658v5.355c0,2.482-.289,5.576-1.751,7.65l.9.85C10.149,82.725,10.234,79.75,10.251,76.554ZM3.842,73.188h2.6a17.031,17.031,0,0,1-.7,2.363H4.369A22.561,22.561,0,0,0,3.842,73.188Zm18.173-.1V70.145H20.893v2.941H18.615V74.14h2.278v2.567h-2.6v1.054h2.6a7.5,7.5,0,0,1-2.669,5.916l.833.935a7.961,7.961,0,0,0,2.669-4.386A16.405,16.405,0,0,1,24,82.793l.765-1.037a20.508,20.508,0,0,0-2.737-2.584L22,79.155c-.034-.034-.017-.051-.085-.068h.017c.034-.425.068-.9.085-1.326h2.346V76.707H22.015V74.14h2.108V73.086Zm7.82,10.03V79.648h1.8V70.587H24.922v9.061h1.6c-.051,2.4-.833,3.978-3.264,4.709l.68.986c2.737-1.02,3.587-2.958,3.689-5.695h1.088v4.063a1.127,1.127,0,0,0,.255.85c.255.272,1.139.289,1.5.289H30.6a8.134,8.134,0,0,0,.9-.034,1.21,1.21,0,0,0,1.02-.629,10.472,10.472,0,0,0,.323-2.431l-1.088-.51v.238A8.126,8.126,0,0,1,31.6,83.2c-.119.442-.629.51-1.02.51C30.107,83.711,29.835,83.711,29.835,83.116Zm.7-11.509v1.666H26.01V71.607Zm0,2.652v1.649H26.01V74.259Zm0,2.635v1.734H26.01V76.894Zm5.151-5.27v.969h6.171v.986H37.366V76.5h4.488v.986H36.567v.935h5.287v.935H35.275v.935h6.579v.986h-5.27v.935h5.27v1.36c0,.357-.2.493-.527.493a9.14,9.14,0,0,1-1.751-.221l.187,1.224a16.613,16.613,0,0,0,1.836.1c.952,0,1.428-.17,1.428-1.19V82.215h3.655v.731h1.139V80.328h1.9v-1h-1.9V77.489H43.027V76.5H47.6V73.579H43.027v-.986h6.29v-.969h-6.29V69.89H41.854v1.734ZM41.854,75.6H38.488V74.463h3.366Zm4.624-1.139V75.6H43.027V74.463Zm-3.451,3.961h3.655v.935H43.027Zm0,1.87h3.655v.986H43.027ZM64.838,78.73v-.969H60.01V76.724h5.559v-.986H61.778c.306-.527.612-1.19.867-1.751h3.74V73H61.37V69.89H60.214V73H58.65V69.89H57.511V73h-4.93v.986h3.655a11.716,11.716,0,0,1,.8,1.751H53.4v.986h5.457v1.037H54.145v.969h4.709v1.037H52.445v1.02H57.9A12.935,12.935,0,0,1,52.19,84.1l.8,1a12.016,12.016,0,0,0,5.865-4v4.08H60.01V81.059a13.89,13.89,0,0,0,5.882,3.706l.8-1.122a17.181,17.181,0,0,1-5.61-2.856h5.474v-1.02H60.01V78.73Zm-2.465-6.171h.017l1.054.391a19.554,19.554,0,0,0,1.292-2.414l-1.224-.425A13.4,13.4,0,0,1,62.373,72.559Zm-7.072.374h.034l1.1-.51a11.476,11.476,0,0,0-1.207-2.159l-1.105.493A7.452,7.452,0,0,1,55.3,72.933Zm2.244,1.054h3.808a10.05,10.05,0,0,1-.748,1.751H58.259A13.037,13.037,0,0,0,57.545,73.987Zm18.717,8.7.051,1.241a6.4,6.4,0,0,0,5.882-3.6,5.754,5.754,0,0,0-.289-5.712,5.834,5.834,0,0,0-4.981-2.567,6.789,6.789,0,0,0-6.783,6.562,5.063,5.063,0,0,0,1.19,3.808c1.037.969,2.737.918,3.859-.782a13.169,13.169,0,0,0,1.649-4.148,20.5,20.5,0,0,0,.6-4.267A4.58,4.58,0,0,1,80.8,75.279,4.428,4.428,0,0,1,81,79.75C80.019,81.79,78.472,82.5,76.262,82.691Zm-.68-5.525A12.633,12.633,0,0,1,74.1,80.991c-.493.782-1.258,1.173-1.87.578a4.089,4.089,0,0,1-.8-2.89,5.656,5.656,0,0,1,4.675-5.423A22.408,22.408,0,0,1,75.582,77.166Zm11.866-2.788h12.07V73.239h-5.44V70.417H92.8v2.822H87.448Zm6.868,8.4h-7.48v1.139h13.311V82.776H95.591c.731-2.363,1.445-5.219,1.938-7.582l-1.292-.374A58.994,58.994,0,0,1,94.316,82.776Zm-3.57-.578h.068l1.207-.374a56.149,56.149,0,0,0-1.666-6.664l-1.207.442A45.428,45.428,0,0,1,90.746,82.2Zm18.343-7.786h5.372V73.188h-5.355v-2.6h-1.292v2.6h-2.652v1.224h2.652a8.452,8.452,0,0,1-1.8,5.78l1.088.68v-.017a9.075,9.075,0,0,1,5.1-2.108,2.646,2.646,0,0,1,2.142.935,1.627,1.627,0,0,1,.17,1.445,3.11,3.11,0,0,1-1.9,1.836,8.719,8.719,0,0,1-3.6.272v1.139c1.581.136,3.825.238,5.423-1a3.308,3.308,0,0,0,1.02-4.352,3.75,3.75,0,0,0-3.179-1.394,8.693,8.693,0,0,0-4.046,1.224A10.845,10.845,0,0,0,109.089,74.412Zm18.581,1.853H133.2V75.058H127.67V70.587h-1.258V82.521h-5.95v1.207h14.025V82.521H127.67ZM150.3,70.706h-.969v2.567h.969Zm2.091.017h-.969V73.29h.969Zm-4.08,3.638V70.944h-1.275v3.417h-4.539v1.088h4.539v2.89c0,3.5-.051,3.706-2.006,5.491l.918.833c2.4-1.972,2.363-2.618,2.363-6.324v-2.89h2.618V74.361Zm-7.99,9.129.952-.731a3.609,3.609,0,0,1-1.088-2.975V71.93h-1.224v7.684A4.651,4.651,0,0,0,140.318,83.49Zm19.992-7.565.34-2.618h4.488V72.151H160.82l.289-2.04h-1.275l-.272,2.04h-3.128v1.156h2.958L158.9,77.03h2.142a1.114,1.114,0,0,1,1.173.935c-1.921,1.054-4.947,2.465-3.91,4.947.493,1.139,1.785,1.717,4.029,1.7a26.975,26.975,0,0,0,3.366-.272l-.051-1.207a29.169,29.169,0,0,1-3.247.272c-.629,0-2.533.068-2.941-1.054-.527-1.445,1.479-2.4,2.89-3.145v2.04h1.224V78.73c.918-.408,1.972-.833,3.213-1.326l-.493-1.105c-1.224.493-2.091.833-2.975,1.207a2.14,2.14,0,0,0-2.278-1.581ZM7.14,125.847l.986.85c2.958-3.468,3.672-5.185,3.672-9.2h3.094v-1.207H11.8V112.74H10.506v3.553H6.443v-3.587H5.151v3.587H2.159V117.5H5.151v4.131H6.443V117.5h4.063C10.489,121.1,9.962,122.583,7.14,125.847Zm12.7-9.588v1.224h5v8.976H26.2v-8.976h4.862v-1.224H26.2v-3.638h-1.36v3.638Zm9.367,3.281-1.054.731a20.11,20.11,0,0,1,2.635,4.488l1.19-.527A19.826,19.826,0,0,0,29.206,119.54Zm-6.647.9v-.884H21.233v.884c0,.833-.153,1.462-2.04,3.706l1,.8C22.049,122.719,22.559,121.8,22.559,120.441Zm9.2-6.817a1.828,1.828,0,1,0-3.655,0,1.828,1.828,0,0,0,3.655,0Zm-.748,0a1.074,1.074,0,0,1-1.071,1.054,1.048,1.048,0,0,1-1.054-1.054,1.063,1.063,0,0,1,1.054-1.071A1.113,1.113,0,0,1,31.008,113.624Zm5.219,6.6H48.773v-1.292H36.227Zm21.828-2.6v-5H56.746v13.906h1.309v-7.616a48.9,48.9,0,0,1,5.61,3.451l.748-1.1A54.425,54.425,0,0,0,58.055,117.619Zm24.259,4.913L81.4,121.7c-2.108,2.788-3.995,3.536-5.338,3.536-1.445,0-2.074-.969-2.074-2.363V113.1H72.641v9.775a3.288,3.288,0,0,0,3.468,3.587C78.166,126.459,80.308,125.235,82.314,122.532Zm15.742,3.145.748-.969a15.288,15.288,0,0,0-4.2-2.329v-3.332h3.706v-1.156H94.6v-2.567h3.961v-1.173H94.6v-2.023H93.364v2.023h-4.42v1.173h4.42v2.567h-4.2v1.156h4.2v2.975a6.1,6.1,0,0,0-2.057-.068,2.615,2.615,0,0,0-2.346,1.462c-.629,1.87,1.19,2.975,3.043,2.975,1.8,0,2.55-.9,2.6-2.771A14.9,14.9,0,0,1,98.056,125.677Zm-4.692-2.329c.017,1.224-.119,1.836-1.36,1.836-.884,0-1.972-.425-1.8-1.139.1-.476.748-.731,1.275-.8A5.711,5.711,0,0,1,93.364,123.348Zm23.307-7.5v-1.139h-3.944v-2.159h-1.275v2.159h-7.293v1.139h7.293v2.057a1.531,1.531,0,0,0-1.054-.306,2.6,2.6,0,0,0-2.584,2.618,2.56,2.56,0,0,0,2.363,3.009,1.637,1.637,0,0,0,1.36-.425c-.153,1.224-.476,1.649-2.346,3.468l.935.816c2.584-2.6,2.669-3.043,2.6-6.1v-5.134Zm-6.341,2.924c.9,0,1.326.833,1.258,1.751-.051.765-.391,1.564-1.377,1.53-.969-.034-1.241-1-1.173-1.734C109.089,119.591,109.463,118.775,110.33,118.775Zm11.764,3.927a2.14,2.14,0,0,0-1.581.629,2.229,2.229,0,0,0-.7,1.615,2.108,2.108,0,0,0,1.19,2.006,2.276,2.276,0,0,0,1.071.272,2.124,2.124,0,0,0,2.006-1.241,2.16,2.16,0,0,0,.255-1.02,2.1,2.1,0,0,0-1.19-1.989A2.165,2.165,0,0,0,122.094,122.7Zm-.017.867a1.356,1.356,0,0,1,.629.136,1.409,1.409,0,0,1,.1,2.448,1.354,1.354,0,0,1-.731.2,1.321,1.321,0,0,1-1.275-.8,1.488,1.488,0,0,1-.119-.6,1.328,1.328,0,0,1,.442-1.037A1.306,1.306,0,0,1,122.077,123.569Z" transform="translate(32 489.249)" fill="#fff"/></g></g></svg>