<svg xmlns="http://www.w3.org/2000/svg" width="84.766" height="19.8" viewBox="0 0 84.766 19.8"><path d="M-41.822-16.016v1.254h7.986v1.276h-5.808V-9.7h5.808v1.276h-6.842v1.21h6.842v1.21H-42.35V-4.8h8.514V-3.52h-6.82v1.21h6.82V-.55c0,.462-.264.638-.682.638A11.829,11.829,0,0,1-36.784-.2l.242,1.584a21.5,21.5,0,0,0,2.376.132c1.232,0,1.848-.22,1.848-1.54V-2.31h4.73v.946h1.474V-4.752h2.464v-1.3h-2.464V-8.426h-6.2V-9.7H-26.4v-3.784h-5.918v-1.276h8.14v-1.254h-8.14V-18.26h-1.518v2.244Zm7.986,5.148h-4.356v-1.474h4.356Zm5.984-1.474v1.474h-4.466v-1.474Zm-4.466,5.126h4.73v1.21h-4.73Zm0,2.42h4.73V-3.52h-4.73ZM-4.092-6.82V-8.074H-10.34V-9.416h7.194v-1.276H-8.052c.4-.682.792-1.54,1.122-2.266h4.84v-1.276H-8.58V-18.26h-1.5v4.026H-12.1V-18.26h-1.474v4.026h-6.38v1.276h4.73a15.162,15.162,0,0,1,1.034,2.266H-18.9v1.276h7.062v1.342H-17.93V-6.82h6.094v1.342H-20.13v1.32h7.062A16.739,16.739,0,0,1-20.46.132l1.034,1.3a15.55,15.55,0,0,0,7.59-5.17V1.54h1.5V-3.806A17.976,17.976,0,0,0-2.728.99L-1.694-.462a22.235,22.235,0,0,1-7.26-3.7H-1.87v-1.32h-8.47V-6.82Zm-3.19-7.986h.022L-5.9-14.3a25.306,25.306,0,0,0,1.672-3.124l-1.584-.55A17.346,17.346,0,0,1-7.282-14.806Zm-9.152.484h.044l1.43-.66a14.852,14.852,0,0,0-1.562-2.794l-1.43.638A9.644,9.644,0,0,1-16.434-14.322Zm2.9,1.364H-8.6a13.006,13.006,0,0,1-.968,2.266h-3.036A16.872,16.872,0,0,0-13.53-12.958Zm25.256-1.386V-17.71H10.12v3.366H3.014v15.6H4.62V-12.914h5.456C9.834-9,8.69-6.16,4.928-4.378l.99,1.364A9.994,9.994,0,0,0,11-8.844a45.92,45.92,0,0,1,4.62,4.862l1.254-1.254a44.852,44.852,0,0,0-5.5-5.1,20.052,20.052,0,0,0,.308-2.574h5.676V-1.43c0,.55-.22.858-.77.858A25.836,25.836,0,0,1,13.112-.88L13.354.836C14.52.924,15.664.99,16.83.99c1.386,0,2.134-.308,2.134-1.8v-13.53ZM39.82-11.66h1.562v-3.96H33.748v-2.64H32.12v2.64H24.6v3.96H26.18V-14.3H39.82Zm-.264,2.882H39.6l1.232-1.078a36.715,36.715,0,0,0-5.324-3.432l-1.1.946A33.5,33.5,0,0,1,39.556-8.778ZM25.058-9.79h-.022l1.012,1.232a21.609,21.609,0,0,0,5.324-3.718l-1.166-.9A14.973,14.973,0,0,1,25.058-9.79ZM37.114.55v.99h1.562v-6.8c.88.506,1.826.968,2.816,1.452l.924-1.364a26.5,26.5,0,0,1-8.8-5.83h-1.5a18.643,18.643,0,0,1-8.514,6.16l.88,1.32a24.408,24.408,0,0,0,2.838-1.474V1.54h1.54V.55Zm1.012-6.138H28.292a21.492,21.492,0,0,0,4.62-4.092A26.734,26.734,0,0,0,38.126-5.588ZM37.114-.77h-8.25v-3.5h8.25Z" transform="translate(42.35 18.26)"/></svg>