<svg xmlns="http://www.w3.org/2000/svg" width="116.208" height="10.8" viewBox="0 0 116.208 10.8"><path d="M2.868-8.412v.936H5.952v-.936Zm7.464,2.448-.852-.4s-.252.588-.588,1.236C7.668-2.676,6.828-.84,4.02-.84H3.144V.036H4.02c3.432,0,4.488-2.208,5.748-4.764C9.9-5,10.332-5.964,10.332-5.964Zm-4.38.744v-.9H2.868v.9ZM15.12-4.2h.9V-6.9h-.9Zm2.136,0h.912V-6.9h-.912ZM15.84-.552l.528.72c3.54-2.4,4.4-3.708,4.4-6.6V-6.84H19.86v.408C19.86-3.912,19.2-2.82,15.84-.552Zm11.2.228.528.756c4.3-2.676,5.928-4.7,5.928-7.248v-.816h-3.54a6.356,6.356,0,0,0,.18-1.812h-.96c0,1.62-.012,2.676-2.9,4.74l.552.72A7.909,7.909,0,0,0,29.6-6.756h2.928C32.484-4.584,30.984-2.808,27.036-.324ZM38.184-.66l.576.744a36.269,36.269,0,0,0,3.708-3.06A31.63,31.63,0,0,1,45.372.18L46.116-.4a32.549,32.549,0,0,0-2.976-3.24,5.35,5.35,0,0,0,1.62-3.828v-.912H39.036v.864H43.8C43.8-5.508,43.044-4.3,38.184-.66ZM57.5-7.332V-8.388h-6.96v3.756h.96V-7.5h5.028c0,3.54-.468,4.344-3.372,7.176l.684.672C56.8-2.544,57.5-3.576,57.5-7.332Zm5-.72v.912h3.336v-.912Zm7.716,2.424L69.372-6.1c-2.112,3.888-2.82,5.208-6.54,5.208V0C67.236,0,68.16-1.8,70.224-5.628Zm9.144.492h-2.7v.768h2.544A9.022,9.022,0,0,1,76.38-.684L76.956,0a8.9,8.9,0,0,0,2.412-3.252V.84h.816V-3.432A9.528,9.528,0,0,0,82.74-.264l.552-.792a9.589,9.589,0,0,1-2.928-3.312h2.712v-.768H80.184V-7.02h2.328v-.756H80.184V-9.96h-.816v2.184H78.216c.108-.408.2-.8.276-1.224l-.78-.156a9.209,9.209,0,0,1-1.056,3.18l.6.552A10.13,10.13,0,0,0,78-7.02h1.368ZM74.616-4.8V.84h.8V-4.512a11.533,11.533,0,0,1,1.1,1.644l.468-.888a14.431,14.431,0,0,0-1.584-1.716h.012V-6.648h1.44V-7.4H75.42V-9.936h-.8V-7.4H73v.756h1.512A13.636,13.636,0,0,1,72.756-2.34l.492.888A13.287,13.287,0,0,0,74.616-4.8ZM91.464-6.732h3.36v-.78H91.392c-.072-.816-.108-1.62-.132-2.436h-.876c.024.8.072,1.668.132,2.484H85.2v.792h5.376c.216,2.088.8,5.2,2.3,6.7.228.228.648.636,1.008.636.792,0,1.08-1.872,1.164-2.4l-.78-.552a.52.52,0,0,1-.012.06C94.224-1.86,94-.48,93.756-.48c-.156,0-.492-.4-.588-.516A8.072,8.072,0,0,1,91.86-3.924a13.606,13.606,0,0,1-.372-2.508A2.338,2.338,0,0,1,91.464-6.732Zm1.8-1.032h.024l.672-.492A8.819,8.819,0,0,0,92.76-9.8l-.672.432A8.4,8.4,0,0,1,93.264-7.764ZM88.452-1.452V-4.164h1.9v-.768H85.716v.768h1.9v2.856h.012c-.612.108-1.272.228-1.884.312l-.516.072.252.864A53.094,53.094,0,0,0,90.96-1.248l-.072-.708-.492.12C89.748-1.68,89.112-1.548,88.452-1.452ZM99.444-5.364h5.112v-.768h-4.9a11.024,11.024,0,0,0,2.3-2.712,12.529,12.529,0,0,0,4.668,3.912l.552-.78a10.238,10.238,0,0,1-4.752-3.936h-.984a10.182,10.182,0,0,1-4.6,4.284l.552.684a11.429,11.429,0,0,0,1.848-1.152l.108-.084a.193.193,0,0,0,.084-.048Zm1.908,2.172h5.172v-.792H97.476v.792h2.964A16.584,16.584,0,0,1,99.216-.54l-1.668.108.276.876c2.316-.2,4.752-.468,7.056-.828l.156-.024c.276.348.564.708.816,1.08L106.56.06a24.249,24.249,0,0,0-2.784-2.976l-.624.468c.492.456.936.948,1.38,1.44-1.488.156-2.94.288-4.416.408A21.336,21.336,0,0,0,101.352-3.192ZM113.2-7.284l-.372-.384h-1.188v-2.16h-.864v2.16h-1.608v.792h2.928A10.81,10.81,0,0,1,108.84-3l.456.78a17.426,17.426,0,0,0,1.524-1.452V.84h.864V-3.912a15.741,15.741,0,0,1,1.524,1.452l.576-.768a25.659,25.659,0,0,0-2.052-1.56A12.92,12.92,0,0,0,113.2-7.284Zm3.1.852v-3.2h-.852v3.2h-2.16v.8h2.16V-.444H112.8v.8h6.276v-.8h-2.784V-5.628h2.376v-.8Z" transform="translate(-2.868 9.96)"/></svg>