<svg xmlns="http://www.w3.org/2000/svg" width="114.46" height="18.32" viewBox="0 0 114.46 18.32"><path d="M-46-15.14h-1.64A11.814,11.814,0,0,1-49.5-8.32c-1.46-1.04-2.68-1.86-3.58-2.46l-.9,1.26c.66.44,1.94,1.3,3.58,2.48A47.131,47.131,0,0,1-56.44-.52L-55.32.6a44.929,44.929,0,0,0,6.24-6.76c.9.68,1.74,1.28,3.08,2.28l.96-1.24c-1.34-.98-2.2-1.6-3.16-2.32A13.126,13.126,0,0,0-46-15.14Zm10.18,1.72v1.52h5.56v-1.52Zm12.86,4.04-1.42-.78c-3.52,6.48-4.7,8.68-10.9,8.68V0C-27.94,0-26.4-3-22.96-9.38Zm17.94-6.34H-6.2v3.06h1.18Zm2.48.02H-3.72v3.06h1.18ZM-3.74-1.6l1.5-.62A72.985,72.985,0,0,0-7.2-12.84l-1.4.78A74.187,74.187,0,0,1-3.74-1.6Zm-8.44-7.68V-12.7h-1.64v3.42c0,2.42-.72,3.08-4.2,7.14L-16.8-1.1C-13.32-5.16-12.18-6.12-12.18-9.28ZM2.62-6.8H17.38V-8.32H2.62Zm27.1,5.26.06,1.46A7.526,7.526,0,0,0,36.7-4.32a6.769,6.769,0,0,0-.34-6.72,6.863,6.863,0,0,0-5.86-3.02,7.987,7.987,0,0,0-7.98,7.72,5.957,5.957,0,0,0,1.4,4.48c1.22,1.14,3.22,1.08,4.54-.92A15.493,15.493,0,0,0,30.4-7.66a24.12,24.12,0,0,0,.7-5.02,5.388,5.388,0,0,1,3.96,2.42A5.21,5.21,0,0,1,35.3-5C34.14-2.6,32.32-1.76,29.72-1.54Zm-.8-6.5a14.863,14.863,0,0,1-1.74,4.5c-.58.92-1.48,1.38-2.2.68C24-3.8,24-5.72,24.04-6.26a6.654,6.654,0,0,1,5.5-6.38A26.363,26.363,0,0,1,28.92-8.04ZM50.66-14.2v-2.4H49.2v2.4H41.98v1.24H49.2v1.86H43.46v1.22H56.8V-11.1H50.66v-1.86h7.36V-14.2ZM54.88-3.74v1.12h1.44V-8.44H43.88V-5.1c0,2.32-.3,4.08-2.04,5.72l1,1.1a8.461,8.461,0,0,0,2.42-5.46ZM49.3-4.92h-4V-7.28h4Zm5.58,0H50.7V-7.28h4.18Z" transform="translate(56.44 16.6)" fill="#fff"/></svg>