<svg xmlns="http://www.w3.org/2000/svg" width="186.98" height="18.12" viewBox="0 0 186.98 18.12"><path d="M-84.48-11.92v-1.52c-6.32,0-7.1-.16-9.46-1.58l-.78,1.3C-92-12.08-90.82-11.92-84.48-11.92ZM-90.76.02h6.52v-1.5h-6.52a3.9,3.9,0,0,1-2.98-.9c-.54-.72-.7-1.76-.46-3.4h-1.54a5.159,5.159,0,0,0,.84,4.34C-94.06-.46-92.72.02-90.76.02ZM-63.14.2V-1.2a13.831,13.831,0,0,1-2.34.32,3.269,3.269,0,0,1-1.38-.26c-.38-.16-.8-.54-.8-1.9V-4.9a2.407,2.407,0,0,0-2.68-2.68h-1.68l2.92-7.3-1.36-.54L-76.72-.06l1.36.56,2.78-6.76h2.24c.84,0,1.08.34,1.08,1.24v1.78c0,1.76.64,2.94,1.76,3.42a5.186,5.186,0,0,0,1.96.38A11.437,11.437,0,0,0-63.14.2Zm5.58-3.5,1.32.74a50.4,50.4,0,0,0,3.88-9.4h3.1v-1.4h-2.66c.28-1.02.5-1.88.62-2.28l-1.44-.34c-.16.54-.42,1.54-.72,2.62H-56.4v1.4h2.48A46.69,46.69,0,0,1-57.56-3.3Zm13.08-5.68h1.36v-1.16l-4.5-.08a5.987,5.987,0,0,0-3.56,1.06l.74,1.08a5.329,5.329,0,0,1,3.76-.96,3.69,3.69,0,0,0-.92,2.8v2.1a5.9,5.9,0,0,0-2.26-.16,2.941,2.941,0,0,0-2.66,1.64C-53.24-.6-50.94.68-49.08.68s2.92-.88,2.9-2.88A27.234,27.234,0,0,1-43.12-.52l.72-1.22a23.545,23.545,0,0,0-3.78-1.94v-2.5C-46.22-8.1-45.5-8.98-44.48-8.98Zm-3.04,6.22v.38c0,1.08-.3,1.72-1.52,1.72-.38,0-2.16-.2-2.18-1.26a1.009,1.009,0,0,1,.78-.9,4.225,4.225,0,0,1,1.26-.2A6.135,6.135,0,0,1-47.52-2.76Zm18.24-11.8v-1.32h-1.54v1.4c0,5.98-1.16,11.2-6.82,14.18l1.06,1.36A14.12,14.12,0,0,0-29.92-9.1a14.387,14.387,0,0,0,1.1,3.28A17.1,17.1,0,0,0-23.22.66l1.06-1.52C-27.38-3.98-29.28-8.6-29.28-14.56ZM-4.56-.02v-1.4a33.983,33.983,0,0,1-5.22.32c-1.38-.04-3.66-.14-4.22-1.68-.72-1.86,1.42-3.34,5.12-5.54l3.72-2.18-.8-1.22c-1.96,1.16-3.12,1.86-4.42,2.74V-15.9H-11.9v7.84c-2.9,1.88-4.5,3.46-3.54,5.9C-14.4.38-10.94.3-9.4.32A29.842,29.842,0,0,0-4.56-.02ZM5.5-16.28,4.2-16.6A29.827,29.827,0,0,1,1.14-7.08l.68,1.32A25.575,25.575,0,0,0,3.1-8.18V1.4H4.4V-11.66a.9.9,0,0,1,.06-.22L4.5-12l.1-.34C4.98-13.64,5.24-14.94,5.5-16.28ZM18.2-10.4v-1.66H15.7v-4.2H14.48v4.3H13.24v-.88H9.82v-1.38H9.78a27.971,27.971,0,0,0,3.02-.5l-.84-1.1a38.374,38.374,0,0,1-6.56.92l.42,1.06c.92-.06,1.9-.12,2.84-.24v1.24H5.14v1.04H8.66v1.2H5.9v5.76H8.66v1.26H5.6v1.06H8.66V-1.1h.02c-.36.12-3.14.34-3.66.38L5.4.52c2.26-.24,4.66-.7,6.84-1.14l.1-.02c-.3.46-.62.86-.92,1.24l.94.92c2.84-3.38,3.22-8.14,3.32-12.34h1.28v.9c0,1.98-.08,3.9-.2,5.86,0,.1-.02.22-.02.32a19.672,19.672,0,0,1-.3,2.82c-.12.5-.32.82-.86.82a6,6,0,0,1-1.52-.2l.18,1.34a8.715,8.715,0,0,0,1.62.14A1.62,1.62,0,0,0,17.66-.3,27.073,27.073,0,0,0,18-3.9C18.12-6.08,18.2-8.22,18.2-10.4Zm-5.34-.34h1.6v.1a22.036,22.036,0,0,1-1.52,8.9c-1.04.18-2.08.36-3.12.5V-2.52h3V-3.58h-3V-4.84H12.6V-10.6H9.82v-1.2h3.04ZM7.06-9.62H8.68v1.38H7.06Zm4.38,1.38H9.78V-9.62h1.66Zm-4.38.96H8.68v1.46H7.06Zm4.38,1.46H9.78V-7.28h1.66ZM33.6.38V-.98a19.21,19.21,0,0,1-4.24.1c-1.5-.18-2.42-.64-2.78-1.56a1.365,1.365,0,0,1,.08-1.12c.32-.7,1.08-1.08,2.6-1.14a18.923,18.923,0,0,1,4.36.82l.76-1.18h.02A5.931,5.931,0,0,1,32.64-8.8H36v-1.36H32.52c-.02-.38-.02-.72-.02-2.36h3.44v-1.42H32.5v-2.42H31.02v2.42H24.68v1.42h6.34c0,1.58,0,1.92.04,2.36H24.68V-8.8h6.5A8.114,8.114,0,0,0,32.3-5.36a9.827,9.827,0,0,0-3.14-.6c-2.04.04-3.26.58-3.86,1.7a2.734,2.734,0,0,0-.1,2.4C25.86-.28,27.7.58,30.58.58A18.332,18.332,0,0,0,33.6.38ZM47.72-11.3h3.52v-1.34h-3.5v-3.38H46.18v3.38h-3v1.34h3c-.08,5.08-.82,6.38-3.36,11.02l1.36.7C46.72-4.22,47.64-5.8,47.72-11.3ZM50.38-9v1.34h6.16V-9ZM54.92.02h1.94V-1.4H54.88c-1.74,0-3.56-.1-3.56-1.62v-.74h-1.5v.74C49.82-.42,52.24.02,54.92.02ZM67-.04l.9-1.26c-2.34-1.6-2.74-1.74-2.74-5.14v-6.78h-1.6v6.78C63.56-2.8,64-2.1,67-.04ZM75.52-5.5v2.32h1.6V-5.5c0-3-.14-3.88-2.52-6.6l-1.26.9C75.4-8.86,75.52-8.5,75.52-5.5Zm13.7,1.66h1.56l.34-12.04H88.88ZM88.88.3h2.24V-2.02H88.88Z" transform="translate(95.86 16.6)" fill="#fff"/></svg>