<svg xmlns="http://www.w3.org/2000/svg" width="77.06" height="18" viewBox="0 0 77.06 18"><path d="M-38.02-14.56v1.14h7.26v1.16h-5.28v3.44h5.28v1.16h-6.22v1.1h6.22v1.1H-38.5v1.1h7.74V-3.2h-6.2v1.1h6.2V-.5c0,.42-.24.58-.62.58a10.754,10.754,0,0,1-2.06-.26l.22,1.44a19.545,19.545,0,0,0,2.16.12c1.12,0,1.68-.2,1.68-1.4V-2.1h4.3v.86h1.34V-4.32h2.24V-5.5h-2.24V-7.66h-5.64V-8.82H-24v-3.44h-5.38v-1.16h7.4v-1.14h-7.4V-16.6h-1.38v2.04Zm7.26,4.68h-3.96v-1.34h3.96Zm5.44-1.34v1.34h-4.06v-1.34Zm-4.06,4.66h4.3v1.1h-4.3Zm0,2.2h4.3V-3.2h-4.3ZM-3.72-6.2V-7.34H-9.4V-8.56h6.54V-9.72H-7.32c.36-.62.72-1.4,1.02-2.06h4.4v-1.16H-7.8V-16.6H-9.16v3.66H-11V-16.6h-1.34v3.66h-5.8v1.16h4.3a13.784,13.784,0,0,1,.94,2.06h-4.28v1.16h6.42v1.22H-16.3V-6.2h5.54v1.22H-18.3v1.2h6.42A15.218,15.218,0,0,1-18.6.12l.94,1.18a14.136,14.136,0,0,0,6.9-4.7V1.4H-9.4V-3.46A16.342,16.342,0,0,0-2.48.9l.94-1.32a20.213,20.213,0,0,1-6.6-3.36H-1.7v-1.2H-9.4V-6.2Zm-2.9-7.26h.02l1.24.46a23,23,0,0,0,1.52-2.84l-1.44-.5A15.769,15.769,0,0,1-6.62-13.46Zm-8.32.44h.04l1.3-.6a13.5,13.5,0,0,0-1.42-2.54l-1.3.58A8.767,8.767,0,0,1-14.94-13.02Zm2.64,1.24h4.48A11.823,11.823,0,0,1-8.7-9.72h-2.76A15.338,15.338,0,0,0-12.3-11.78Zm22.96-1.26V-16.1H9.2v3.06H2.74V1.14H4.2V-11.74H9.16C8.94-8.18,7.9-5.6,4.48-3.98l.9,1.24A9.086,9.086,0,0,0,10-8.04a41.745,41.745,0,0,1,4.2,4.42l1.14-1.14a40.775,40.775,0,0,0-5-4.64,18.229,18.229,0,0,0,.28-2.34h5.16V-1.3c0,.5-.2.78-.7.78A23.488,23.488,0,0,1,11.92-.8L12.14.76C13.2.84,14.24.9,15.3.9c1.26,0,1.94-.28,1.94-1.64v-12.3ZM36.2-10.6h1.42v-3.6H30.68v-2.4H29.2v2.4H22.36v3.6H23.8V-13H36.2Zm-.24,2.62H36l1.12-.98a33.377,33.377,0,0,0-4.84-3.12l-1,.86A30.451,30.451,0,0,1,35.96-7.98ZM22.78-8.9h-.02l.92,1.12a19.644,19.644,0,0,0,4.84-3.38l-1.06-.82A13.612,13.612,0,0,1,22.78-8.9ZM33.74.5v.9h1.42V-4.78c.8.46,1.66.88,2.56,1.32l.84-1.24a24.094,24.094,0,0,1-8-5.3H29.2a16.948,16.948,0,0,1-7.74,5.6l.8,1.2a22.189,22.189,0,0,0,2.58-1.34V1.4h1.4V.5Zm.92-5.58H25.72a19.538,19.538,0,0,0,4.2-3.72A24.3,24.3,0,0,0,34.66-5.08ZM33.74-.7h-7.5V-3.88h7.5Z" transform="translate(38.5 16.6)" fill="#fff"/></svg>