<svg xmlns="http://www.w3.org/2000/svg" width="76.92" height="18.3" viewBox="0 0 76.92 18.3"><path d="M-31.14-7.64H-24v-5.2h-2.58v-1.08h4.6v-1.14h-4.6V-16.6h-1.34v1.54H-32.2V-16.6h-1.38v1.54h-4.46v1.14h4.46v1.08h-2.46v5.2h3.48l-.68,1.04h-5.24v1.14h4.3A14.437,14.437,0,0,1-38.44-2.7l.86,1.04a18.421,18.421,0,0,0,2.72-1.62v.82h3.36C-32.16-.4-34.66.28-36.6.48l.7,1.14c2.7-.36,5.04-1.36,5.8-4.16h3.68c0,.08-.02.16-.02.24a6.853,6.853,0,0,1-.24,1.58.892.892,0,0,1-.96.7,16.012,16.012,0,0,1-2.44-.24l.22,1.3c.06,0,.16.02.24.02.72.06,1.5.14,2.24.14A1.8,1.8,0,0,0-25.52.26a18.524,18.524,0,0,0,.48-3.64,24.165,24.165,0,0,0,2.78,1.42l.82-1.16a20.19,20.19,0,0,1-4.52-2.34h4.44V-6.6H-31.76C-31.56-6.92-31.32-7.3-31.14-7.64Zm-1.06-5.2v-1.08h4.28v1.08Zm6.86,2.08h-9.34v-1.06h9.34Zm0,.96v1.14h-9.34V-9.8Zm-.16,6.1h-4.44V-4.96h-1.34v1.34h-3.16A14.538,14.538,0,0,0-32.6-5.46h4.96A15.182,15.182,0,0,0-25.5-3.7Zm12.26-12.68-1.42-.3a14.345,14.345,0,0,1-3.86,6.14l.88.98a12.545,12.545,0,0,0,1.8-2.06v5.16h5.08v1.28h-7.46V-4h6.56A15.072,15.072,0,0,1-18.56.08l.92,1.2a14.677,14.677,0,0,0,6.88-4.62V1.4h1.38V-3.44A16.8,16.8,0,0,0-2.48.86l.94-1.3A18.445,18.445,0,0,1-8.4-4h6.6V-5.18H-9.38V-6.46h6.92V-7.6H-9.34V-8.88h5.52V-9.92H-9.34V-11.1h5.52v-1.04H-9.34v-1.2h6.48v-1.14H-9.24a19.689,19.689,0,0,0,.96-1.82l-1.54-.38a11.524,11.524,0,0,1-.8,2.2H-14.1A19.9,19.9,0,0,0-13.24-16.38Zm2.62,3.04v1.2H-14.5v-1.2Zm0,2.24v1.18H-14.5V-11.1Zm0,2.22V-7.6H-14.5V-8.88ZM13.96-16.5v6h-2a26.96,26.96,0,0,0,.76-2.84h.7v-1.14H10.98v-2.14H9.72v2.14H7.74v-1.14H1.46v1.22h.9V-3.16h.02c-.42.1-.86.18-1.28.26l.36,1.46c1.36-.4,2.7-.8,4.02-1.3V1.4h1.2V-9.34H14a34.95,34.95,0,0,0,.58,5.78A16.329,16.329,0,0,1,10.8.6l.86,1a15.633,15.633,0,0,0,3.36-3.62A6.74,6.74,0,0,0,16.18.2c.26.32.84.94,1.3.94,1,0,1.24-3.36,1.28-3.98l-1.12-.8v.4a12.69,12.69,0,0,1-.3,2.34v.04c-.04.08-.08.2-.12.2-.1,0-.24-.28-.32-.38-.02-.02-.04-.04-.04-.06a9.023,9.023,0,0,1-1.02-2.28,31.8,31.8,0,0,0,1.94-4.5l-1.14-.58a27.921,27.921,0,0,1-1.16,3.2,36.7,36.7,0,0,1-.24-4.2h3.34v-1.16H15.22c-.04-1.56-.02-3.12-.02-4.7V-16.5Zm3.14,4.96h.06l1.08-.7a17.554,17.554,0,0,0-1.42-3.22l-1.08.56A18.765,18.765,0,0,1,17.1-11.54ZM5.48-11.72H3.52V-14.4H5.48ZM8.56-10.5H6.68v-3.9H7.3v1.06h.66A23.942,23.942,0,0,1,8.56-10.5Zm.58-2.84H11.5a23.363,23.363,0,0,1-.66,2.84H9.72C9.58-11.4,9.36-12.48,9.14-13.34ZM5.48-7.88H3.52v-2.68H5.48ZM8.96-.68V-1.7h3.96V-8.08H7.82v7.4Zm2.78-6.34v1.56H8.96V-7.02ZM3.52-3.42v-3.3H5.48V-4H5.5C4.84-3.8,4.18-3.62,3.52-3.42Zm8.22-1.02v1.68H8.96V-4.44ZM24.28-7.18V1.4h1.3V-6.72a22.956,22.956,0,0,1,1.48,2.06l.84-1.3a20.045,20.045,0,0,0-2.32-2.38V-9.78h2.14v-1.26H25.58V-14.2h-.02c.78-.2,1.56-.42,2.36-.7L26.9-16.04a25.608,25.608,0,0,1-5.32,1.34l.52,1.14c.74-.1,1.48-.2,2.18-.34v2.86H21.52v1.26H24.1a25.109,25.109,0,0,1-2.84,6.34l.68,1.42A19.991,19.991,0,0,0,24.28-7.18Zm3.18-5.52v1.12H32.2v1.28H28.58v6.2H32.2v1.38H28.24v1.08H32.2v1.4H27.3V.9H38.44V-.24H33.48v-1.4H37.5V-2.72H33.48V-4.1h3.7v-6.2h-3.7v-1.28h4.8V-12.7h-4.8v-1.5h-.04c1.3-.16,2.58-.36,3.86-.62L36.32-16a40.119,40.119,0,0,1-8.3,1.04l.54,1.18c.7-.02,1.42-.1,2.12-.16l1.52-.12v1.36Zm4.78,4.98h-2.4V-9.24h2.4Zm3.7-1.52v1.52h-2.5V-9.24Zm-3.7,4.08h-2.4V-6.74h2.4Zm3.7-1.58v1.58h-2.5V-6.74Z" transform="translate(38.48 16.68)" fill="#fff"/></svg>