<svg xmlns="http://www.w3.org/2000/svg" width="206.98" height="17.6" viewBox="0 0 206.98 17.6"><path d="M-94.48-11.92v-1.52c-6.32,0-7.1-.16-9.46-1.58l-.78,1.3C-102-12.08-100.82-11.92-94.48-11.92ZM-100.76.02h6.52v-1.5h-6.52a3.9,3.9,0,0,1-2.98-.9c-.54-.72-.7-1.76-.46-3.4h-1.54a5.159,5.159,0,0,0,.84,4.34C-104.06-.46-102.72.02-100.76.02ZM-73.14.2V-1.2a13.831,13.831,0,0,1-2.34.32,3.269,3.269,0,0,1-1.38-.26c-.38-.16-.8-.54-.8-1.9V-4.9a2.407,2.407,0,0,0-2.68-2.68h-1.68l2.92-7.3-1.36-.54L-86.72-.06l1.36.56,2.78-6.76h2.24c.84,0,1.08.34,1.08,1.24v1.78c0,1.76.64,2.94,1.76,3.42a5.186,5.186,0,0,0,1.96.38A11.437,11.437,0,0,0-73.14.2Zm5.58-3.5,1.32.74a50.4,50.4,0,0,0,3.88-9.4h3.1v-1.4h-2.66c.28-1.02.5-1.88.62-2.28l-1.44-.34c-.16.54-.42,1.54-.72,2.62H-66.4v1.4h2.48A46.69,46.69,0,0,1-67.56-3.3Zm13.08-5.68h1.36v-1.16l-4.5-.08a5.987,5.987,0,0,0-3.56,1.06l.74,1.08a5.329,5.329,0,0,1,3.76-.96,3.69,3.69,0,0,0-.92,2.8v2.1a5.9,5.9,0,0,0-2.26-.16,2.941,2.941,0,0,0-2.66,1.64C-63.24-.6-60.94.68-59.08.68s2.92-.88,2.9-2.88A27.234,27.234,0,0,1-53.12-.52l.72-1.22a23.545,23.545,0,0,0-3.78-1.94v-2.5C-56.22-8.1-55.5-8.98-54.48-8.98Zm-3.04,6.22v.38c0,1.08-.3,1.72-1.52,1.72-.38,0-2.16-.2-2.18-1.26a1.009,1.009,0,0,1,.78-.9,4.225,4.225,0,0,1,1.26-.2A6.135,6.135,0,0,1-57.52-2.76Zm23.04-9.16v-1.52c-6.32,0-7.1-.16-9.46-1.58l-.78,1.3C-42-12.08-40.82-11.92-34.48-11.92ZM-40.76.02h6.52v-1.5h-6.52a3.9,3.9,0,0,1-2.98-.9c-.54-.72-.7-1.76-.46-3.4h-1.54a5.159,5.159,0,0,0,.84,4.34C-44.06-.46-42.72.02-40.76.02Zm26.2-.04v-1.4a33.983,33.983,0,0,1-5.22.32c-1.38-.04-3.66-.14-4.22-1.68-.72-1.86,1.42-3.34,5.12-5.54l3.72-2.18-.8-1.22c-1.96,1.16-3.12,1.86-4.42,2.74V-15.9H-21.9v7.84c-2.9,1.88-4.5,3.46-3.54,5.9C-24.4.38-20.94.3-19.4.32A29.842,29.842,0,0,0-14.56-.02ZM-.36-16.2l-.82,1.24a9.21,9.21,0,0,0,6.22,1.82v-1.42A7.678,7.678,0,0,1-.36-16.2ZM-2.8-11.1l-.28-4.7H-4.6l.3,4.9-2.76.32v1.34l2.84-.3.6,9.96h1.58L-2.7-9.74c4.32-.44,4.6-.48,5.38-.48a3.637,3.637,0,0,1,2.54.72,2.093,2.093,0,0,1-.16,3.06,2.533,2.533,0,0,1-1.5.48,4.123,4.123,0,0,1-2.5-.94L.26-5.68C2.04-4.6,2.7-4.5,3.8-4.54a3.851,3.851,0,0,0,2.18-.78,3.427,3.427,0,0,0,.28-5.18A4.774,4.774,0,0,0,2.8-11.62C1.72-11.62-1.2-11.26-2.8-11.1Zm23.52,1.06h-6v1.46h6c2.1,0,3.58.62,3.5,2.78-.1,2.5-3.16,3.64-5.34,3.64H17.7V-.68h1.18c4.7,0,6.8-2.98,6.88-5.08C25.86-8.58,23.88-10.04,20.72-10.04Zm22.34-2.5H46.1v-1.38H33.18v1.38l8.16-.02c-2.08,2.62-3.64,4.38-3.98,6.78-.52,3.76,1.5,6,5.48,6q.48,0,1.56-.06V-1.22c-.7.06-1.3.08-1.52.08-2.8,0-4.4-1.52-3.98-4.4C39.32-8.38,42.06-11.02,43.06-12.54ZM65.36-.38l.88-1.14A17.986,17.986,0,0,0,61.3-4.26V-8.18h4.36V-9.54H61.3v-3.02h4.66v-1.38H61.3v-2.38H59.84v2.38h-5.2v1.38h5.2v3.02H54.9v1.36h4.94v3.5a7.174,7.174,0,0,0-2.42-.08,3.077,3.077,0,0,0-2.76,1.72c-.74,2.2,1.4,3.5,3.58,3.5,2.12,0,3-1.06,3.06-3.26A17.53,17.53,0,0,1,65.36-.38ZM59.84-3.12c.02,1.44-.14,2.16-1.6,2.16-1.04,0-2.32-.5-2.12-1.34.12-.56.88-.86,1.5-.94A6.719,6.719,0,0,1,59.84-3.12Zm27.42-8.82v-1.34H82.62v-2.54h-1.5v2.54H72.54v1.34h8.58v2.42a1.8,1.8,0,0,0-1.24-.36A3.057,3.057,0,0,0,76.84-6.8a3.012,3.012,0,0,0,2.78,3.54,1.926,1.926,0,0,0,1.6-.5c-.18,1.44-.56,1.94-2.76,4.08l1.1.96C82.6-1.78,82.7-2.3,82.62-5.9v-6.04ZM79.8-8.5c1.06,0,1.56.98,1.48,2.06-.06.9-.46,1.84-1.62,1.8-1.14-.04-1.46-1.18-1.38-2.04C78.34-7.54,78.78-8.5,79.8-8.5ZM99.22-3.84h1.56l.34-12.04H98.88ZM98.88.3h2.24V-2.02H98.88Z" transform="translate(105.86 16.32)" fill="#fff"/></svg>