<svg xmlns="http://www.w3.org/2000/svg" width="84.612" height="20.13" viewBox="0 0 84.612 20.13"><path d="M-34.254-8.4H-26.4v-5.72h-2.838v-1.188h5.06v-1.254h-5.06V-18.26h-1.474v1.694H-35.42V-18.26h-1.518v1.694h-4.906v1.254h4.906v1.188h-2.706V-8.4h3.828l-.748,1.144h-5.764v1.254h4.73A15.881,15.881,0,0,1-42.284-2.97l.946,1.144a20.264,20.264,0,0,0,2.992-1.782v.9h3.7C-35.376-.44-38.126.308-40.26.528l.77,1.254c2.97-.4,5.544-1.5,6.38-4.576h4.048c0,.088-.022.176-.022.264a7.538,7.538,0,0,1-.264,1.738.981.981,0,0,1-1.056.77,17.613,17.613,0,0,1-2.684-.264l.242,1.43c.066,0,.176.022.264.022.792.066,1.65.154,2.464.154A1.98,1.98,0,0,0-28.072.286a20.376,20.376,0,0,0,.528-4,26.582,26.582,0,0,0,3.058,1.562l.9-1.276a22.209,22.209,0,0,1-4.972-2.574h4.884V-7.26H-34.936C-34.716-7.612-34.452-8.03-34.254-8.4Zm-1.166-5.72v-1.188h4.708v1.188Zm7.546,2.288H-38.148V-13h10.274Zm0,1.056v1.254H-38.148V-10.78Zm-.176,6.71h-4.884V-5.456h-1.474v1.474h-3.476A15.992,15.992,0,0,0-35.86-6.006H-30.4A16.7,16.7,0,0,0-28.05-4.07Zm13.486-13.948-1.562-.33a15.78,15.78,0,0,1-4.246,6.754l.968,1.078a13.8,13.8,0,0,0,1.98-2.266v5.676h5.588V-5.7h-8.206v1.3h7.216A16.579,16.579,0,0,1-20.416.088l1.012,1.32a16.145,16.145,0,0,0,7.568-5.082V1.54h1.518V-3.784A18.479,18.479,0,0,0-2.728.946l1.034-1.43A20.289,20.289,0,0,1-9.24-4.4h7.26V-5.7h-8.338V-7.106h7.612V-8.36h-7.568V-9.768H-4.2v-1.144h-6.072v-1.3H-4.2v-1.144h-6.072v-1.32h7.128v-1.254h-7.018a21.657,21.657,0,0,0,1.056-2l-1.694-.418a12.676,12.676,0,0,1-.88,2.42H-15.51A21.9,21.9,0,0,0-14.564-18.018Zm2.882,3.344v1.32H-15.95v-1.32Zm0,2.464v1.3H-15.95v-1.3Zm0,2.442V-8.36H-15.95V-9.768ZM15.356-18.15v6.6h-2.2a29.656,29.656,0,0,0,.836-3.124h.77v-1.254H12.078v-2.354H10.692v2.354H8.514v-1.254H1.606v1.342H2.6V-3.476h.022c-.462.11-.946.2-1.408.286l.4,1.606c1.5-.44,2.97-.88,4.422-1.43V1.54h1.32V-10.274H15.4a38.445,38.445,0,0,0,.638,6.358A17.962,17.962,0,0,1,11.88.66l.946,1.1a17.2,17.2,0,0,0,3.7-3.982A7.414,7.414,0,0,0,17.8.22c.286.352.924,1.034,1.43,1.034,1.1,0,1.364-3.7,1.408-4.378L19.4-4v.44a13.958,13.958,0,0,1-.33,2.574v.044c-.044.088-.088.22-.132.22-.11,0-.264-.308-.352-.418-.022-.022-.044-.044-.044-.066a9.926,9.926,0,0,1-1.122-2.508,34.983,34.983,0,0,0,2.134-4.95L18.3-9.306a30.714,30.714,0,0,1-1.276,3.52,40.368,40.368,0,0,1-.264-4.62h3.674v-1.276h-3.7c-.044-1.716-.022-3.432-.022-5.17v-1.3Zm3.454,5.456h.066l1.188-.77A19.309,19.309,0,0,0,18.5-17.006l-1.188.616A20.642,20.642,0,0,1,18.81-12.694Zm-12.782-.2H3.872V-15.84H6.028ZM9.416-11.55H7.348v-4.29H8.03v1.166h.726A26.336,26.336,0,0,1,9.416-11.55Zm.638-3.124h2.6a25.7,25.7,0,0,1-.726,3.124H10.692C10.538-12.54,10.3-13.728,10.054-14.674ZM6.028-8.668H3.872v-2.948H6.028ZM9.856-.748V-1.87h4.356V-8.888H8.6v8.14Zm3.058-6.974v1.716H9.856V-7.722ZM3.872-3.762v-3.63H6.028V-4.4H6.05C5.324-4.18,4.6-3.982,3.872-3.762Zm9.042-1.122v1.848H9.856V-4.884ZM26.708-7.9V1.54h1.43V-7.392a25.252,25.252,0,0,1,1.628,2.266l.924-1.43a22.05,22.05,0,0,0-2.552-2.618v-1.584h2.354v-1.386H28.138V-15.62h-.022c.858-.22,1.716-.462,2.6-.77L29.59-17.644a28.168,28.168,0,0,1-5.852,1.474l.572,1.254c.814-.11,1.628-.22,2.4-.374v3.146H23.672v1.386H26.51a27.62,27.62,0,0,1-3.124,6.974l.748,1.562A21.99,21.99,0,0,0,26.708-7.9Zm3.5-6.072v1.232H35.42v1.408H31.438v6.82H35.42v1.518H31.064V-1.8H35.42v1.54H30.03V.99H42.284V-.264H36.828V-1.8H41.25V-2.992H36.828V-4.51H40.9v-6.82h-4.07v-1.408h5.28V-13.97h-5.28v-1.65h-.044c1.43-.176,2.838-.4,4.246-.682l-1.078-1.3a44.13,44.13,0,0,1-9.13,1.144l.594,1.3c.77-.022,1.562-.11,2.332-.176l1.672-.132v1.5Zm5.258,5.478h-2.64v-1.672h2.64Zm4.07-1.672v1.672h-2.75v-1.672Zm-4.07,4.488h-2.64V-7.414h2.64Zm4.07-1.738v1.738h-2.75V-7.414Z" transform="translate(42.328 18.348)"/></svg>