<svg xmlns="http://www.w3.org/2000/svg" width="205.678" height="19.932" viewBox="0 0 205.678 19.932"><path d="M-92.928-13.112v-1.672c-6.952,0-7.81-.176-10.406-1.738l-.858,1.43C-101.2-13.288-99.9-13.112-92.928-13.112ZM-99.836.022h7.172v-1.65h-7.172c-1.584,0-2.706-.33-3.278-.99-.594-.792-.77-1.936-.506-3.74h-1.694c-.22,1.562-.308,3.388.924,4.774C-103.466-.506-101.992.022-99.836.022Zm30.382.2V-1.32a15.214,15.214,0,0,1-2.574.352,3.6,3.6,0,0,1-1.518-.286c-.418-.176-.88-.594-.88-2.09V-5.39a2.648,2.648,0,0,0-2.948-2.948h-1.848l3.212-8.03-1.5-.594-6.886,16.9,1.5.616,3.058-7.436h2.464c.924,0,1.188.374,1.188,1.364v1.958c0,1.936.7,3.234,1.936,3.762a5.7,5.7,0,0,0,2.156.418A12.58,12.58,0,0,0-69.454.22Zm6.138-3.85,1.452.814A55.444,55.444,0,0,0-57.6-13.156h3.41V-14.7h-2.926c.308-1.122.55-2.068.682-2.508l-1.584-.374c-.176.594-.462,1.694-.792,2.882H-62.04v1.54h2.728A51.359,51.359,0,0,1-63.316-3.63Zm14.388-6.248h1.5v-1.276l-4.95-.088A6.586,6.586,0,0,0-56.3-10.076l.814,1.188c1.32-.836,1.826-1.056,4.136-1.056a4.059,4.059,0,0,0-1.012,3.08v2.31a6.492,6.492,0,0,0-2.486-.176c-1.54.176-2.574.836-2.926,1.8C-58.564-.66-56.034.748-53.988.748S-50.776-.22-50.8-2.42A29.957,29.957,0,0,1-47.432-.572l.792-1.342A25.9,25.9,0,0,0-50.8-4.048V-6.8C-50.842-8.91-50.05-9.878-48.928-9.878Zm-3.344,6.842v.418c0,1.188-.33,1.892-1.672,1.892-.418,0-2.376-.22-2.4-1.386a1.11,1.11,0,0,1,.858-.99,4.647,4.647,0,0,1,1.386-.22A6.748,6.748,0,0,1-52.272-3.036Zm20.064-12.98v-1.452H-33.9v1.54c0,6.578-1.276,12.32-7.5,15.6l1.166,1.5A15.532,15.532,0,0,0-32.912-10.01,15.826,15.826,0,0,0-31.7-6.4,18.808,18.808,0,0,0-25.542.726l1.166-1.672C-30.118-4.378-32.208-9.46-32.208-16.016ZM-5.016-.022v-1.54a37.382,37.382,0,0,1-5.742.352c-1.518-.044-4.026-.154-4.642-1.848-.792-2.046,1.562-3.674,5.632-6.094l4.092-2.4-.88-1.342c-2.156,1.276-3.432,2.046-4.862,3.014V-17.49H-13.09v8.624c-3.19,2.068-4.95,3.806-3.894,6.49C-15.84.418-12.034.33-10.34.352A32.826,32.826,0,0,0-5.016-.022ZM6.05-17.908,4.62-18.26A32.81,32.81,0,0,1,1.254-7.788L2-6.336A28.133,28.133,0,0,0,3.41-9V1.54H4.84V-12.826a.992.992,0,0,1,.066-.242L4.95-13.2l.11-.374C5.478-15,5.764-16.434,6.05-17.908ZM20.02-11.44v-1.826H17.27v-4.62H15.928v4.73H14.564v-.968H10.8v-1.518h-.044a30.769,30.769,0,0,0,3.322-.55l-.924-1.21A42.211,42.211,0,0,1,5.94-16.39L6.4-15.224c1.012-.066,2.09-.132,3.124-.264v1.364H5.654v1.144H9.526v1.32H6.49v6.336H9.526v1.386H6.16v1.166H9.526V-1.21h.022c-.4.132-3.454.374-4.026.418L5.94.572C8.426.308,11.066-.2,13.464-.682l.11-.022c-.33.506-.682.946-1.012,1.364L13.6,1.672C16.72-2.046,17.138-7.282,17.248-11.9h1.408v.99c0,2.178-.088,4.29-.22,6.446,0,.11-.022.242-.022.352a21.639,21.639,0,0,1-.33,3.1c-.132.55-.352.9-.946.9a6.6,6.6,0,0,1-1.672-.22l.2,1.474a9.586,9.586,0,0,0,1.782.154A1.782,1.782,0,0,0,19.426-.33,29.781,29.781,0,0,0,19.8-4.29C19.932-6.688,20.02-9.042,20.02-11.44Zm-5.874-.374h1.76v.11a24.239,24.239,0,0,1-1.672,9.79c-1.144.2-2.288.4-3.432.55V-2.772h3.3V-3.938H10.8V-5.324H13.86V-11.66H10.8v-1.32h3.344Zm-6.38,1.232H9.548v1.518H7.766Zm4.818,1.518H10.758v-1.518h1.826ZM7.766-8.008H9.548V-6.4H7.766ZM12.584-6.4H10.758V-8.008h1.826ZM36.96.418v-1.5a21.131,21.131,0,0,1-4.664.11c-1.65-.2-2.662-.7-3.058-1.716a1.5,1.5,0,0,1,.088-1.232c.352-.77,1.188-1.188,2.86-1.254a20.816,20.816,0,0,1,4.8.9l.836-1.3h.022A6.524,6.524,0,0,1,35.9-9.68h3.7v-1.5H35.772c-.022-.418-.022-.792-.022-2.6h3.784v-1.562H35.75V-18H34.122v2.662H27.148v1.562h6.974c0,1.738,0,2.112.044,2.6H27.148v1.5H34.3A8.925,8.925,0,0,0,35.53-5.9a10.81,10.81,0,0,0-3.454-.66c-2.244.044-3.586.638-4.246,1.87a3.008,3.008,0,0,0-.11,2.64C28.446-.308,30.47.638,33.638.638A20.165,20.165,0,0,0,36.96.418ZM52.492-12.43h3.872V-13.9h-3.85v-3.718H50.8V-13.9H47.5v1.474h3.3c-.088,5.588-.9,7.018-3.7,12.122l1.5.77C51.392-4.642,52.4-6.38,52.492-12.43ZM55.418-9.9v1.474h6.776V-9.9ZM60.412.022h2.134V-1.54H60.368c-1.914,0-3.916-.11-3.916-1.782v-.814H54.8v.814C54.8-.462,57.464.022,60.412.022ZM73.7-.044l.99-1.386c-2.574-1.76-3.014-1.914-3.014-5.654v-7.458h-1.76v7.458C69.916-3.08,70.4-2.31,73.7-.044ZM83.072-6.05V-3.5h1.76V-6.05c0-3.3-.154-4.268-2.772-7.26l-1.386.99C82.94-9.746,83.072-9.35,83.072-6.05Zm15.07,1.826h1.716l.374-13.244H97.768ZM97.768.33h2.464V-2.222H97.768Z" transform="translate(105.446 18.26)"/></svg>