<svg xmlns="http://www.w3.org/2000/svg" width="125.906" height="20.152" viewBox="0 0 125.906 20.152"><path d="M-50.6-16.654h-1.8a13,13,0,0,1-2.046,7.5C-56.056-10.3-57.4-11.2-58.388-11.858l-.99,1.386c.726.484,2.134,1.43,3.938,2.728A51.844,51.844,0,0,1-62.084-.572L-60.852.66a49.422,49.422,0,0,0,6.864-7.436c.99.748,1.914,1.408,3.388,2.508l1.056-1.364c-1.474-1.078-2.42-1.76-3.476-2.552A14.439,14.439,0,0,0-50.6-16.654Zm11.2,1.892v1.672h6.116v-1.672Zm14.146,4.444-1.562-.858c-3.872,7.128-5.17,9.548-11.99,9.548V0C-30.734,0-29.04-3.3-25.256-10.318Zm19.734-6.974h-1.3v3.366h1.3Zm2.728.022h-1.3V-13.9h1.3ZM-4.114-1.76l1.65-.682A80.283,80.283,0,0,0-7.92-14.124l-1.54.858A81.606,81.606,0,0,1-4.114-1.76ZM-13.4-10.208V-13.97h-1.8v3.762c0,2.662-.792,3.388-4.62,7.854L-18.48-1.21C-14.652-5.676-13.4-6.732-13.4-10.208ZM2.882-7.48H19.118V-9.152H2.882Zm29.81,5.786.066,1.606A8.279,8.279,0,0,0,40.37-4.752,7.446,7.446,0,0,0,40-12.144a7.549,7.549,0,0,0-6.446-3.322,8.785,8.785,0,0,0-8.778,8.492c-.066,1.232.088,3.542,1.54,4.928,1.342,1.254,3.542,1.188,4.994-1.012A17.042,17.042,0,0,0,33.44-8.426a26.531,26.531,0,0,0,.77-5.522,5.927,5.927,0,0,1,4.356,2.662A5.731,5.731,0,0,1,38.83-5.5C37.554-2.86,35.552-1.936,32.692-1.694Zm-.88-7.15A16.349,16.349,0,0,1,29.9-3.894c-.638,1.012-1.628,1.518-2.42.748C26.4-4.18,26.4-6.292,26.444-6.886a7.319,7.319,0,0,1,6.05-7.018A29,29,0,0,1,31.812-8.844ZM55.726-15.62v-2.64H54.12v2.64H46.178v1.364H54.12v2.046H47.806v1.342H62.48V-12.21H55.726v-2.046h8.1V-15.62ZM60.368-4.114v1.232h1.584v-6.4H48.268V-5.61c0,2.552-.33,4.488-2.244,6.292l1.1,1.21a9.307,9.307,0,0,0,2.662-6.006Zm-6.138-1.3h-4.4v-2.6h4.4Zm6.138,0h-4.6v-2.6h4.6Z" transform="translate(62.084 18.26)"/></svg>